<mxfile host="app.diagrams.net" agent="Mozilla/5.0 (Windows NT 10.0; Win64; x64) AppleWebKit/537.36 (KHTML, like Gecko) Chrome/135.0.0.0 Safari/537.36" version="26.2.14">
  <diagram name="Halaman-1" id="34XxjFvA5yVBI5Y3is8h">
    <mxGraphModel dx="2831" dy="2269" grid="1" gridSize="10" guides="1" tooltips="1" connect="1" arrows="1" fold="1" page="1" pageScale="1" pageWidth="827" pageHeight="1169" math="0" shadow="0">
      <root>
        <mxCell id="0" />
        <mxCell id="1" parent="0" />
        <mxCell id="VAW47h7jwuFpxoAy4my7-58" style="edgeStyle=orthogonalEdgeStyle;rounded=0;orthogonalLoop=1;jettySize=auto;html=1;entryX=1;entryY=0.5;entryDx=0;entryDy=0;" parent="1" source="VAW47h7jwuFpxoAy4my7-1" target="VAW47h7jwuFpxoAy4my7-54" edge="1">
          <mxGeometry relative="1" as="geometry" />
        </mxCell>
        <mxCell id="VAW47h7jwuFpxoAy4my7-60" style="edgeStyle=orthogonalEdgeStyle;rounded=0;orthogonalLoop=1;jettySize=auto;html=1;entryX=1;entryY=1;entryDx=0;entryDy=0;" parent="1" source="VAW47h7jwuFpxoAy4my7-1" target="VAW47h7jwuFpxoAy4my7-55" edge="1">
          <mxGeometry relative="1" as="geometry" />
        </mxCell>
        <mxCell id="VAW47h7jwuFpxoAy4my7-61" style="edgeStyle=orthogonalEdgeStyle;rounded=0;orthogonalLoop=1;jettySize=auto;html=1;entryX=1;entryY=0.5;entryDx=0;entryDy=0;" parent="1" source="VAW47h7jwuFpxoAy4my7-1" target="VAW47h7jwuFpxoAy4my7-56" edge="1">
          <mxGeometry relative="1" as="geometry" />
        </mxCell>
        <mxCell id="VAW47h7jwuFpxoAy4my7-1" value="&lt;div&gt;Petugas&lt;/div&gt;" style="shape=umlActor;verticalLabelPosition=bottom;verticalAlign=top;html=1;outlineConnect=0;direction=east;" parent="1" vertex="1">
          <mxGeometry x="750" y="260" width="40" height="60" as="geometry" />
        </mxCell>
        <mxCell id="VAW47h7jwuFpxoAy4my7-42" style="edgeStyle=orthogonalEdgeStyle;rounded=0;orthogonalLoop=1;jettySize=auto;html=1;" parent="1" source="VAW47h7jwuFpxoAy4my7-10" target="VAW47h7jwuFpxoAy4my7-38" edge="1">
          <mxGeometry relative="1" as="geometry" />
        </mxCell>
        <mxCell id="VAW47h7jwuFpxoAy4my7-43" style="edgeStyle=orthogonalEdgeStyle;rounded=0;orthogonalLoop=1;jettySize=auto;html=1;entryX=0;entryY=0.5;entryDx=0;entryDy=0;" parent="1" source="VAW47h7jwuFpxoAy4my7-10" target="VAW47h7jwuFpxoAy4my7-39" edge="1">
          <mxGeometry relative="1" as="geometry" />
        </mxCell>
        <mxCell id="VAW47h7jwuFpxoAy4my7-44" style="edgeStyle=orthogonalEdgeStyle;rounded=0;orthogonalLoop=1;jettySize=auto;html=1;entryX=0;entryY=0.5;entryDx=0;entryDy=0;" parent="1" source="VAW47h7jwuFpxoAy4my7-10" target="VAW47h7jwuFpxoAy4my7-40" edge="1">
          <mxGeometry relative="1" as="geometry" />
        </mxCell>
        <mxCell id="J-PpUcv6VIfvRsHD4s1L-2" style="edgeStyle=orthogonalEdgeStyle;rounded=0;orthogonalLoop=1;jettySize=auto;html=1;entryX=0;entryY=0.5;entryDx=0;entryDy=0;" parent="1" source="VAW47h7jwuFpxoAy4my7-10" target="J-PpUcv6VIfvRsHD4s1L-1" edge="1">
          <mxGeometry relative="1" as="geometry" />
        </mxCell>
        <mxCell id="J-PpUcv6VIfvRsHD4s1L-7" style="edgeStyle=orthogonalEdgeStyle;rounded=0;orthogonalLoop=1;jettySize=auto;html=1;entryX=0;entryY=0.5;entryDx=0;entryDy=0;" parent="1" source="VAW47h7jwuFpxoAy4my7-10" target="J-PpUcv6VIfvRsHD4s1L-6" edge="1">
          <mxGeometry relative="1" as="geometry" />
        </mxCell>
        <mxCell id="VAW47h7jwuFpxoAy4my7-10" value="&lt;div&gt;Superadmin&lt;/div&gt;" style="shape=umlActor;verticalLabelPosition=bottom;verticalAlign=top;html=1;outlineConnect=0;direction=east;" parent="1" vertex="1">
          <mxGeometry x="-60" y="110" width="40" height="60" as="geometry" />
        </mxCell>
        <mxCell id="VAW47h7jwuFpxoAy4my7-25" style="edgeStyle=orthogonalEdgeStyle;rounded=0;orthogonalLoop=1;jettySize=auto;html=1;" parent="1" source="VAW47h7jwuFpxoAy4my7-11" target="VAW47h7jwuFpxoAy4my7-17" edge="1">
          <mxGeometry relative="1" as="geometry">
            <Array as="points">
              <mxPoint x="10" y="480" />
              <mxPoint x="10" y="445" />
            </Array>
          </mxGeometry>
        </mxCell>
        <mxCell id="VAW47h7jwuFpxoAy4my7-28" style="edgeStyle=orthogonalEdgeStyle;rounded=0;orthogonalLoop=1;jettySize=auto;html=1;entryX=0;entryY=0.5;entryDx=0;entryDy=0;" parent="1" source="VAW47h7jwuFpxoAy4my7-11" target="VAW47h7jwuFpxoAy4my7-18" edge="1">
          <mxGeometry relative="1" as="geometry" />
        </mxCell>
        <mxCell id="VAW47h7jwuFpxoAy4my7-11" value="&lt;div&gt;Warga&lt;/div&gt;" style="shape=umlActor;verticalLabelPosition=bottom;verticalAlign=top;html=1;outlineConnect=0;direction=east;" parent="1" vertex="1">
          <mxGeometry x="-80" y="450" width="40" height="60" as="geometry" />
        </mxCell>
        <mxCell id="VAW47h7jwuFpxoAy4my7-15" value="Login" style="ellipse;whiteSpace=wrap;html=1;" parent="1" vertex="1">
          <mxGeometry x="320" y="230" width="120" height="50" as="geometry" />
        </mxCell>
        <mxCell id="VAW47h7jwuFpxoAy4my7-17" value="Pengaduan" style="ellipse;whiteSpace=wrap;html=1;" parent="1" vertex="1">
          <mxGeometry x="90" y="420" width="150" height="50" as="geometry" />
        </mxCell>
        <mxCell id="VAW47h7jwuFpxoAy4my7-18" value="Sosialisasi dan Informasi" style="ellipse;whiteSpace=wrap;html=1;" parent="1" vertex="1">
          <mxGeometry x="90" y="480" width="150" height="50" as="geometry" />
        </mxCell>
        <mxCell id="VAW47h7jwuFpxoAy4my7-19" value="Tanggapan" style="ellipse;whiteSpace=wrap;html=1;" parent="1" vertex="1">
          <mxGeometry x="370" y="450" width="150" height="50" as="geometry" />
        </mxCell>
        <mxCell id="VAW47h7jwuFpxoAy4my7-30" value="" style="endArrow=none;dashed=1;html=1;rounded=0;entryX=0.437;entryY=0.996;entryDx=0;entryDy=0;entryPerimeter=0;exitX=0.775;exitY=0.004;exitDx=0;exitDy=0;exitPerimeter=0;" parent="1" source="VAW47h7jwuFpxoAy4my7-17" target="VAW47h7jwuFpxoAy4my7-15" edge="1">
          <mxGeometry width="50" height="50" relative="1" as="geometry">
            <mxPoint x="229.9997617147261" y="372.4678382920028" as="sourcePoint" />
            <mxPoint x="362.5200000000001" y="310.00000000000006" as="targetPoint" />
            <Array as="points" />
          </mxGeometry>
        </mxCell>
        <mxCell id="VAW47h7jwuFpxoAy4my7-33" value="Include" style="edgeLabel;html=1;align=center;verticalAlign=middle;resizable=0;points=[];" parent="VAW47h7jwuFpxoAy4my7-30" vertex="1" connectable="0">
          <mxGeometry x="-0.1604" relative="1" as="geometry">
            <mxPoint y="1" as="offset" />
          </mxGeometry>
        </mxCell>
        <mxCell id="VAW47h7jwuFpxoAy4my7-32" value="" style="endArrow=none;dashed=1;html=1;rounded=0;exitX=0.987;exitY=0.268;exitDx=0;exitDy=0;exitPerimeter=0;entryX=0.64;entryY=1.036;entryDx=0;entryDy=0;entryPerimeter=0;" parent="1" source="VAW47h7jwuFpxoAy4my7-18" target="VAW47h7jwuFpxoAy4my7-15" edge="1">
          <mxGeometry width="50" height="50" relative="1" as="geometry">
            <mxPoint x="239.9997617147261" y="382.4678382920028" as="sourcePoint" />
            <mxPoint x="390" y="290" as="targetPoint" />
            <Array as="points" />
          </mxGeometry>
        </mxCell>
        <mxCell id="VAW47h7jwuFpxoAy4my7-34" value="" style="endArrow=none;dashed=1;html=1;rounded=0;entryX=1.007;entryY=0.316;entryDx=0;entryDy=0;entryPerimeter=0;exitX=0.22;exitY=0.124;exitDx=0;exitDy=0;exitPerimeter=0;" parent="1" source="VAW47h7jwuFpxoAy4my7-19" target="VAW47h7jwuFpxoAy4my7-17" edge="1">
          <mxGeometry width="50" height="50" relative="1" as="geometry">
            <mxPoint x="514" y="467" as="sourcePoint" />
            <mxPoint x="366" y="310" as="targetPoint" />
            <Array as="points">
              <mxPoint x="350" y="443" />
            </Array>
          </mxGeometry>
        </mxCell>
        <mxCell id="VAW47h7jwuFpxoAy4my7-36" value="Extend" style="edgeLabel;html=1;align=center;verticalAlign=middle;resizable=0;points=[];" parent="1" vertex="1" connectable="0">
          <mxGeometry x="303.00444820258366" y="379.99556837774753" as="geometry" />
        </mxCell>
        <mxCell id="VAW47h7jwuFpxoAy4my7-37" value="Extend" style="edgeLabel;html=1;align=center;verticalAlign=middle;resizable=0;points=[];" parent="1" vertex="1" connectable="0">
          <mxGeometry x="350.00444820258366" y="429.99556837774753" as="geometry">
            <mxPoint as="offset" />
          </mxGeometry>
        </mxCell>
        <mxCell id="VAW47h7jwuFpxoAy4my7-38" value="Akun" style="ellipse;whiteSpace=wrap;html=1;" parent="1" vertex="1">
          <mxGeometry x="100" y="70" width="150" height="50" as="geometry" />
        </mxCell>
        <mxCell id="VAW47h7jwuFpxoAy4my7-39" value="Sosialisasi dan Informasi" style="ellipse;whiteSpace=wrap;html=1;" parent="1" vertex="1">
          <mxGeometry x="100" y="140" width="150" height="50" as="geometry" />
        </mxCell>
        <mxCell id="VAW47h7jwuFpxoAy4my7-40" value="Laporan" style="ellipse;whiteSpace=wrap;html=1;" parent="1" vertex="1">
          <mxGeometry x="100" y="200" width="150" height="50" as="geometry" />
        </mxCell>
        <mxCell id="VAW47h7jwuFpxoAy4my7-45" value="" style="endArrow=none;dashed=1;html=1;rounded=0;entryX=0.383;entryY=0;entryDx=0;entryDy=0;entryPerimeter=0;exitX=0.979;exitY=0.38;exitDx=0;exitDy=0;exitPerimeter=0;" parent="1" source="VAW47h7jwuFpxoAy4my7-38" target="VAW47h7jwuFpxoAy4my7-15" edge="1">
          <mxGeometry width="50" height="50" relative="1" as="geometry">
            <mxPoint x="240" y="170" as="sourcePoint" />
            <mxPoint x="290" y="120" as="targetPoint" />
          </mxGeometry>
        </mxCell>
        <mxCell id="VAW47h7jwuFpxoAy4my7-46" value="Include" style="edgeLabel;html=1;align=center;verticalAlign=middle;resizable=0;points=[];" parent="VAW47h7jwuFpxoAy4my7-45" vertex="1" connectable="0">
          <mxGeometry x="-0.2255" y="-5" relative="1" as="geometry">
            <mxPoint as="offset" />
          </mxGeometry>
        </mxCell>
        <mxCell id="VAW47h7jwuFpxoAy4my7-47" value="" style="endArrow=none;dashed=1;html=1;rounded=0;entryX=0.053;entryY=0.38;entryDx=0;entryDy=0;entryPerimeter=0;exitX=0.925;exitY=0.756;exitDx=0;exitDy=0;exitPerimeter=0;" parent="1" source="VAW47h7jwuFpxoAy4my7-39" target="VAW47h7jwuFpxoAy4my7-15" edge="1">
          <mxGeometry width="50" height="50" relative="1" as="geometry">
            <mxPoint x="240" y="245" as="sourcePoint" />
            <mxPoint x="290" y="195" as="targetPoint" />
          </mxGeometry>
        </mxCell>
        <mxCell id="VAW47h7jwuFpxoAy4my7-48" value="Include" style="edgeLabel;html=1;align=center;verticalAlign=middle;resizable=0;points=[];" parent="VAW47h7jwuFpxoAy4my7-47" vertex="1" connectable="0">
          <mxGeometry x="-0.0643" relative="1" as="geometry">
            <mxPoint as="offset" />
          </mxGeometry>
        </mxCell>
        <mxCell id="VAW47h7jwuFpxoAy4my7-49" value="" style="endArrow=none;dashed=1;html=1;rounded=0;entryX=0.067;entryY=0.668;entryDx=0;entryDy=0;entryPerimeter=0;exitX=0.963;exitY=0.74;exitDx=0;exitDy=0;exitPerimeter=0;" parent="1" source="VAW47h7jwuFpxoAy4my7-40" target="VAW47h7jwuFpxoAy4my7-15" edge="1">
          <mxGeometry width="50" height="50" relative="1" as="geometry">
            <mxPoint x="240" y="350" as="sourcePoint" />
            <mxPoint x="290" y="300" as="targetPoint" />
          </mxGeometry>
        </mxCell>
        <mxCell id="VAW47h7jwuFpxoAy4my7-51" value="Include" style="edgeLabel;html=1;align=center;verticalAlign=middle;resizable=0;points=[];" parent="VAW47h7jwuFpxoAy4my7-49" vertex="1" connectable="0">
          <mxGeometry x="-0.0059" y="3" relative="1" as="geometry">
            <mxPoint x="1" as="offset" />
          </mxGeometry>
        </mxCell>
        <mxCell id="VAW47h7jwuFpxoAy4my7-54" value="Tanggapan" style="ellipse;whiteSpace=wrap;html=1;" parent="1" vertex="1">
          <mxGeometry x="540" y="170" width="150" height="50" as="geometry" />
        </mxCell>
        <mxCell id="VAW47h7jwuFpxoAy4my7-55" value="Laporan" style="ellipse;whiteSpace=wrap;html=1;" parent="1" vertex="1">
          <mxGeometry x="540" y="250" width="150" height="50" as="geometry" />
        </mxCell>
        <mxCell id="VAW47h7jwuFpxoAy4my7-56" value="Pengaduan" style="ellipse;whiteSpace=wrap;html=1;" parent="1" vertex="1">
          <mxGeometry x="530" y="330" width="150" height="50" as="geometry" />
        </mxCell>
        <mxCell id="VAW47h7jwuFpxoAy4my7-57" style="edgeStyle=orthogonalEdgeStyle;rounded=0;orthogonalLoop=1;jettySize=auto;html=1;exitX=0.5;exitY=1;exitDx=0;exitDy=0;" parent="1" source="VAW47h7jwuFpxoAy4my7-55" target="VAW47h7jwuFpxoAy4my7-55" edge="1">
          <mxGeometry relative="1" as="geometry" />
        </mxCell>
        <mxCell id="VAW47h7jwuFpxoAy4my7-62" value="" style="endArrow=none;dashed=1;html=1;rounded=0;entryX=0.034;entryY=0.714;entryDx=0;entryDy=0;entryPerimeter=0;exitX=1;exitY=0;exitDx=0;exitDy=0;" parent="1" source="VAW47h7jwuFpxoAy4my7-15" target="VAW47h7jwuFpxoAy4my7-54" edge="1">
          <mxGeometry width="50" height="50" relative="1" as="geometry">
            <mxPoint x="411" y="190" as="sourcePoint" />
            <mxPoint x="540" y="251" as="targetPoint" />
          </mxGeometry>
        </mxCell>
        <mxCell id="VAW47h7jwuFpxoAy4my7-63" value="Include" style="edgeLabel;html=1;align=center;verticalAlign=middle;resizable=0;points=[];" parent="VAW47h7jwuFpxoAy4my7-62" vertex="1" connectable="0">
          <mxGeometry x="-0.2255" y="-5" relative="1" as="geometry">
            <mxPoint as="offset" />
          </mxGeometry>
        </mxCell>
        <mxCell id="VAW47h7jwuFpxoAy4my7-64" value="" style="endArrow=none;dashed=1;html=1;rounded=0;entryX=0.023;entryY=0.319;entryDx=0;entryDy=0;entryPerimeter=0;exitX=1;exitY=0;exitDx=0;exitDy=0;" parent="1" target="VAW47h7jwuFpxoAy4my7-55" edge="1">
          <mxGeometry width="50" height="50" relative="1" as="geometry">
            <mxPoint x="440" y="261" as="sourcePoint" />
            <mxPoint x="562" y="230" as="targetPoint" />
          </mxGeometry>
        </mxCell>
        <mxCell id="VAW47h7jwuFpxoAy4my7-65" value="Include" style="edgeLabel;html=1;align=center;verticalAlign=middle;resizable=0;points=[];" parent="VAW47h7jwuFpxoAy4my7-64" vertex="1" connectable="0">
          <mxGeometry x="-0.2255" y="-5" relative="1" as="geometry">
            <mxPoint as="offset" />
          </mxGeometry>
        </mxCell>
        <mxCell id="VAW47h7jwuFpxoAy4my7-66" value="" style="endArrow=none;dashed=1;html=1;rounded=0;exitX=1;exitY=1;exitDx=0;exitDy=0;" parent="1" source="VAW47h7jwuFpxoAy4my7-15" target="VAW47h7jwuFpxoAy4my7-56" edge="1">
          <mxGeometry width="50" height="50" relative="1" as="geometry">
            <mxPoint x="418" y="351" as="sourcePoint" />
            <mxPoint x="540" y="320" as="targetPoint" />
          </mxGeometry>
        </mxCell>
        <mxCell id="VAW47h7jwuFpxoAy4my7-67" value="Include" style="edgeLabel;html=1;align=center;verticalAlign=middle;resizable=0;points=[];" parent="VAW47h7jwuFpxoAy4my7-66" vertex="1" connectable="0">
          <mxGeometry x="-0.2255" y="-5" relative="1" as="geometry">
            <mxPoint as="offset" />
          </mxGeometry>
        </mxCell>
        <mxCell id="J-PpUcv6VIfvRsHD4s1L-1" value="Tanggapan" style="ellipse;whiteSpace=wrap;html=1;" parent="1" vertex="1">
          <mxGeometry x="90" y="-10" width="150" height="50" as="geometry" />
        </mxCell>
        <mxCell id="J-PpUcv6VIfvRsHD4s1L-3" value="" style="endArrow=none;dashed=1;html=1;rounded=0;entryX=0.572;entryY=0.012;entryDx=0;entryDy=0;entryPerimeter=0;" parent="1" source="J-PpUcv6VIfvRsHD4s1L-1" target="VAW47h7jwuFpxoAy4my7-15" edge="1">
          <mxGeometry width="50" height="50" relative="1" as="geometry">
            <mxPoint x="221" y="109" as="sourcePoint" />
            <mxPoint x="350" y="170" as="targetPoint" />
            <Array as="points">
              <mxPoint x="320" y="100" />
            </Array>
          </mxGeometry>
        </mxCell>
        <mxCell id="J-PpUcv6VIfvRsHD4s1L-4" value="Include" style="edgeLabel;html=1;align=center;verticalAlign=middle;resizable=0;points=[];" parent="J-PpUcv6VIfvRsHD4s1L-3" vertex="1" connectable="0">
          <mxGeometry x="-0.2255" y="-5" relative="1" as="geometry">
            <mxPoint as="offset" />
          </mxGeometry>
        </mxCell>
        <mxCell id="J-PpUcv6VIfvRsHD4s1L-6" value="Pengaduan" style="ellipse;whiteSpace=wrap;html=1;" parent="1" vertex="1">
          <mxGeometry x="100" y="265" width="150" height="50" as="geometry" />
        </mxCell>
        <mxCell id="J-PpUcv6VIfvRsHD4s1L-9" value="Logout" style="ellipse;whiteSpace=wrap;html=1;" parent="1" vertex="1">
          <mxGeometry x="400" y="90" width="120" height="50" as="geometry" />
        </mxCell>
        <mxCell id="J-PpUcv6VIfvRsHD4s1L-10" value="" style="endArrow=none;dashed=1;html=1;rounded=0;entryX=0.578;entryY=1.048;entryDx=0;entryDy=0;entryPerimeter=0;exitX=0.705;exitY=-0.04;exitDx=0;exitDy=0;exitPerimeter=0;" parent="1" source="VAW47h7jwuFpxoAy4my7-15" target="J-PpUcv6VIfvRsHD4s1L-9" edge="1">
          <mxGeometry width="50" height="50" relative="1" as="geometry">
            <mxPoint x="370" y="190" as="sourcePoint" />
            <mxPoint x="493" y="159" as="targetPoint" />
          </mxGeometry>
        </mxCell>
        <mxCell id="J-PpUcv6VIfvRsHD4s1L-11" value="Include" style="edgeLabel;html=1;align=center;verticalAlign=middle;resizable=0;points=[];" parent="J-PpUcv6VIfvRsHD4s1L-10" vertex="1" connectable="0">
          <mxGeometry x="-0.2255" y="-5" relative="1" as="geometry">
            <mxPoint as="offset" />
          </mxGeometry>
        </mxCell>
        <mxCell id="WXWKC0xzpRcgoFzZH83f-3" value="" style="endArrow=none;dashed=1;html=1;rounded=0;entryX=0;entryY=1;entryDx=0;entryDy=0;exitX=0.963;exitY=0.74;exitDx=0;exitDy=0;exitPerimeter=0;" edge="1" parent="1" target="VAW47h7jwuFpxoAy4my7-15">
          <mxGeometry width="50" height="50" relative="1" as="geometry">
            <mxPoint x="240" y="280" as="sourcePoint" />
            <mxPoint x="324" y="306" as="targetPoint" />
          </mxGeometry>
        </mxCell>
        <mxCell id="WXWKC0xzpRcgoFzZH83f-4" value="Include" style="edgeLabel;html=1;align=center;verticalAlign=middle;resizable=0;points=[];" vertex="1" connectable="0" parent="WXWKC0xzpRcgoFzZH83f-3">
          <mxGeometry x="-0.0059" y="3" relative="1" as="geometry">
            <mxPoint x="1" as="offset" />
          </mxGeometry>
        </mxCell>
      </root>
    </mxGraphModel>
  </diagram>
</mxfile>
